<svg id="svg8" height="512" viewBox="0 0 135.46666 135.46667" width="512" xmlns="http://www.w3.org/2000/svg" xmlns:svg="http://www.w3.org/2000/svg"><path id="path927" d="m14.107664 117.26994v3.3445c.00037 1.84961 1.499534 3.34901 3.349149 3.34966h94.517747c1.84981-.00026 3.34929-1.49984 3.34966-3.34966v-3.3445z" font-variant-ligatures="normal" font-variant-position="normal" font-variant-caps="normal" font-variant-numeric="normal" font-variant-alternates="normal" font-variant-east-asian="normal" font-feature-settings="normal" font-variation-settings="normal" text-indent="0" text-align="start" text-decoration-line="none" text-decoration-style="solid" text-decoration-color="rgb(0,0,0)" text-transform="none" text-orientation="mixed" white-space="normal" shape-padding="0" shape-margin="0" inline-size="0" isolation="auto" mix-blend-mode="normal" solid-color="rgb(0,0,0)" solid-opacity="1" vector-effect="none" paint-order="fill markers stroke"/><path id="path861" d="m105.53722 60.225877c-1.5018-.003-2.71928.0236-2.89026.02739-.00053.000011-.005-.00001-.005 0-.0134-.000082-.0269-.000082-.0403 0h-75.853425c-1.845187.000265-3.342754 1.492605-3.349665 3.33778-.04121 11.122257.477609 19.512173 3.052526 26.853653 2.574918 7.3415 7.266267 13.36628 14.736568 19.37867.594995.47896 1.335791.74023 2.099614.74052h42.622723c.81294-.00012 1.5981-.29582 2.20917-.83199 6.59237-5.78166 11.03162-10.52578 13.813619-15.93908.67908.0806 1.33946.0906 1.96371.0171 1.21982-.1438 2.07638-.45499 3.17396-.75603 6.11552-1.67734 12.04014-6.28026 13.53303-13.0545 1.18085-5.358332 1.03663-9.915729-.86713-13.533025-1.87398-3.560705-5.60204-5.669354-9.68158-6.017721-1.47817-.242281-2.96182-.219591-4.51756-.222726zm.47026 6.710185c1.12855.02138 2.29686.04058 3.38119.160713 2.47016.176167 3.588.907576 4.41988 2.488221.83189 1.580644 1.22696 4.549844.25218 8.973094-.76254 3.46016-4.77056 6.94049-8.76173 8.03517-.32751.0898-.51674.14092-.76792.20981 1.34797-5.41064 1.58572-11.63441 1.4764-19.867008z" font-variant-ligatures="normal" font-variant-position="normal" font-variant-caps="normal" font-variant-numeric="normal" font-variant-alternates="normal" font-variant-east-asian="normal" font-feature-settings="normal" font-variation-settings="normal" text-indent="0" text-align="start" text-decoration-line="none" text-decoration-style="solid" text-decoration-color="rgb(0,0,0)" text-transform="none" text-orientation="mixed" white-space="normal" shape-padding="0" shape-margin="0" inline-size="0" isolation="auto" mix-blend-mode="normal" solid-color="rgb(0,0,0)" solid-opacity="1" vector-effect="none" paint-order="stroke fill markers"/><path id="path963-3" d="m58.994079 11.499289c-1.877126.211578-3.370358 1.618708-4.714551 2.840366-3.914551 3.82615-4.959229 10.0655-2.759136 15.038612 1.642034 3.838436 4.030635 7.453112 4.547747 11.686439.648013 4.288913-1.464881 8.54017-3.651677 12.043368-.770714 1.281544 1.136764 2.439719 3.044274.700477 4.583603-4.598636 7.943844-10.546433 6.494191-16.780967-.835964-4.362442-3.433394-8.028313-5.62954-11.786708-1.651782-2.680224-1.891212-6.39005.181659-8.919813.883764-1.566556 3.117092-1.973287 3.654583-3.702265.05645-.648559-.572713-1.105877-1.16755-1.119509zm17.917651 10.900125c-2.118885.438249-3.773613 2.170956-4.967662 3.890627-2.238054 3.344547-1.980467 7.795367-.0853 11.22863 1.860958 3.395079 3.531909 7.408994 2.316856 11.307287-.42064 1.528335-1.312486 2.742202-2.294767 4.086248-1.208048 1.664502 1.010916 2.317943 2.593306 1.275488 4.496757-2.888033 6.526547-8.858098 4.895647-13.917599-.83285-3.301096-3.170637-5.896459-4.480819-8.97508-.937469-2.333931.291706-5.024953 2.433899-6.197684 1.49228-.650629 1.23729-2.810069-.41116-2.697917z" font-variant-ligatures="normal" font-variant-position="normal" font-variant-caps="normal" font-variant-numeric="normal" font-variant-alternates="normal" font-variant-east-asian="normal" font-feature-settings="normal" font-variation-settings="normal" text-indent="0" text-align="start" text-decoration-line="none" text-decoration-style="solid" text-decoration-color="rgb(0,0,0)" text-transform="none" text-orientation="mixed" white-space="normal" shape-padding="0" shape-margin="0" inline-size="0" isolation="auto" mix-blend-mode="normal" solid-color="rgb(0,0,0)" solid-opacity="1" vector-effect="none"/></svg>